<svg width="926" height="158" viewBox="0 0 926 158" fill="none" xmlns="http://www.w3.org/2000/svg">
<path d="M81.7914 72.8275C81.7914 59.3715 78.2551 48.9551 71.1857 41.575C64.1129 34.1915 55.9614 30.5014 46.7244 30.5014C38.1684 30.5014 30.5496 34.3869 23.8712 42.158C17.1929 49.9324 13.8521 60.3117 13.8521 73.2995C13.8521 86.8094 17.4154 97.2527 24.5354 104.633C31.6586 112.016 39.8101 115.71 48.9966 115.71C57.5526 115.71 65.158 111.767 71.8092 103.891C78.464 96.0161 81.7914 85.6603 81.7914 72.8275ZM95.7244 71.0314C95.7244 87.8776 90.7924 101.347 80.9283 111.44C71.0677 121.536 59.6663 126.581 46.7244 126.581C34.305 126.581 23.4128 121.954 14.0477 112.694C4.68256 103.433 0 90.9308 0 75.1765C0 58.1212 4.92866 44.5978 14.7927 34.6094C24.6534 24.6209 36.0547 19.6267 48.9966 19.6267C61.4126 19.6267 72.3048 24.2569 81.6734 33.5141C91.0384 42.7713 95.7244 55.277 95.7244 71.0314Z" fill="white"/>
<path d="M169.452 26.4339C164.702 23.721 158.964 22.363 152.232 22.363C148.109 22.363 144.836 22.8887 142.412 23.93C139.984 24.9747 138.13 26.6698 136.853 29.0153C135.572 31.3606 134.752 34.4408 134.388 38.2488C134.021 42.0567 133.839 46.2287 133.839 50.7681H166.634C166.634 43.7249 167.051 37.6994 167.887 32.6918C168.252 30.3968 168.774 28.3109 169.452 26.4339ZM227.213 16.8095L222.362 28.5468C212.185 23.384 203.706 20.7994 196.924 20.7994C192.801 20.7994 189.527 21.3216 187.103 22.363C184.675 23.4077 182.822 25.1027 181.545 27.4515C180.267 29.7971 179.443 32.8738 179.08 36.6817C178.712 40.4899 178.53 45.184 178.53 50.7681C199.455 50.7681 215.083 49.7469 225.413 47.7149C224.735 58.6166 224.399 71.9682 224.399 87.7731C224.399 100.292 224.789 112.212 225.571 123.531H211.248C212.03 113.044 212.421 101.125 212.421 87.7731C212.421 76.5581 211.898 67.3279 210.856 60.0757C202.56 60.7026 191.786 61.0665 178.53 61.171C178.53 84.9054 178.844 105.691 179.472 123.531H165.538C166.32 106.109 166.712 85.3232 166.712 61.171H133.761C133.761 84.9054 134.075 105.691 134.702 123.531H120.769C121.551 106.109 121.942 85.3232 121.942 61.171C118.706 61.171 113.15 61.3294 105.271 61.6427L105.74 50.1413C112.941 50.559 118.315 50.7681 121.864 50.7681C121.864 44.7696 122.282 39.2632 123.118 34.2588C123.951 29.2512 125.542 25.1566 127.892 21.9754C130.238 18.7942 133.488 16.4589 137.635 14.9728C141.785 13.4866 146.649 12.7419 152.232 12.7419C161.051 12.7419 168.643 14.4134 175.011 17.7496C177.043 15.9264 179.499 14.4909 182.367 13.4462C186.54 11.9365 191.391 11.1782 196.924 11.1782C208.143 11.1782 218.239 13.0553 227.213 16.8095Z" fill="white"/>
<path d="M302.273 111.558L301.49 122.042C297.263 124.441 291.603 125.641 284.506 125.641C270.991 125.641 260.66 121.914 253.512 114.453C246.362 106.995 242.789 97.9974 242.789 87.4596C242.789 76.2985 246.547 66.701 254.057 58.6671C261.573 50.6366 271.514 46.6196 283.879 46.6196C290.089 46.6196 295.149 47.2464 299.063 48.4967L296.949 60.7801C291.472 58.748 285.916 57.7269 280.279 57.7269C272.87 57.7269 266.972 60.3116 262.591 65.4744C258.209 70.6404 256.017 77.1073 256.017 84.8784C256.017 93.3268 258.626 100.37 263.845 106.004C269.06 111.639 276.443 114.453 285.993 114.453C289.908 114.453 295.336 113.489 302.273 111.558Z" fill="white"/>
<path d="M368.883 77.7579C368.883 63.102 362.752 55.7725 350.491 55.7725C337.966 55.7725 330.58 63.3885 328.338 78.6206L368.883 77.7579ZM381.954 77.6028C381.954 79.7933 381.849 82.8195 381.64 86.678L327.867 87.6182C328.389 95.2343 331.339 101.61 336.713 106.746C342.089 111.885 349.209 114.453 358.082 114.453C366.012 114.453 373.448 113.489 380.387 111.558L379.058 122.595C373.944 124.627 366.562 125.641 356.91 125.641C343.341 125.641 332.995 121.941 325.875 114.53C318.751 107.127 315.188 98.102 315.188 87.4599C315.188 76.0898 318.438 66.2968 324.934 58.0809C331.431 49.8651 340.158 45.7571 351.114 45.7571C361.187 45.7571 368.843 48.7327 374.088 54.6773C379.331 60.6252 381.954 68.2648 381.954 77.6028Z" fill="white"/>
<path d="M498.34 78.2261C498.34 69.8823 496.894 64.369 493.997 61.6799C491.099 58.994 486.338 57.6528 479.711 57.6528C474.128 57.6528 468.363 60.3892 462.414 65.8653C462.204 72.2311 462.102 78.462 462.102 84.5649C462.102 93.2762 462.259 106.264 462.572 123.531H448.325C449.475 108.663 450.049 93.5627 450.049 78.2261C450.049 69.8823 448.598 64.369 445.703 61.6799C442.81 58.994 438.178 57.6528 431.81 57.6528C425.287 57.6528 419.184 60.3892 413.497 65.8653C413.497 82.4014 413.603 101.62 413.811 123.531H399.564C400.555 105.795 401.051 92.9661 401.051 85.0334C401.051 72.9859 399.879 61.1474 397.529 49.5143L411.304 47.5564L412.712 57.026H413.497C420.278 50.0873 427.818 46.6196 436.114 46.6196C448.484 46.6196 456.439 50.0873 459.99 57.026H460.849C468.728 50.0873 476.504 46.6196 484.175 46.6196C492.939 46.6196 499.568 48.5505 504.054 52.4092C508.542 56.2677 510.787 63.075 510.787 72.8276C510.787 73.8217 510.732 75.7762 510.627 78.6979C510.523 81.6196 510.472 83.5742 510.472 84.5649C510.472 93.2762 510.577 106.264 510.787 123.531H496.54C497.739 109.863 498.34 94.7624 498.34 78.2261Z" fill="white"/>
<path d="M589.209 86.8364C589.209 78.698 587.16 71.4594 583.067 65.1241C578.968 58.7851 573.14 55.6175 565.574 55.6175C558.06 55.6175 552.278 58.6167 548.236 64.6152C544.191 70.6136 542.171 77.5759 542.171 85.5053C542.171 93.6941 544.218 100.946 548.314 107.255C552.41 113.567 558.266 116.721 565.886 116.721C573.399 116.721 579.164 113.711 583.182 107.686C587.201 101.661 589.209 94.712 589.209 86.8364ZM602.752 84.0967C602.752 97.4517 598.915 107.868 591.246 115.353C583.573 122.837 574.548 126.581 564.165 126.581C554.461 126.581 546.124 123.269 539.158 116.647C532.189 110.021 528.708 100.683 528.708 88.6326C528.708 75.1765 532.557 64.669 540.253 57.1035C547.95 49.5415 556.989 45.7571 567.371 45.7571C577.077 45.7571 585.401 49.1102 592.341 55.813C599.28 62.5157 602.752 71.9448 602.752 84.0967Z" fill="white"/>
<path d="M663.722 112.731L662.785 122.908C658.659 124.418 654.772 125.173 651.122 125.173C641.729 125.173 635.31 122.787 631.869 118.015C628.424 113.24 626.701 104.7 626.701 92.39C626.701 84.4101 626.755 74.0037 626.859 61.1711C623.936 61.1711 619.631 61.3296 613.944 61.6429L614.412 50.2965C619.372 50.6098 623.805 50.7682 627.719 50.7682C627.719 47.6376 627.978 40.2036 628.501 28.4661L640.789 27.2158C639.902 38.1681 639.46 46.02 639.46 50.7682C644.572 50.7682 652.086 50.5053 662 49.983L661.455 61.6429C652.059 61.3296 644.521 61.1711 638.834 61.1711C638.728 69.0466 638.678 77.9163 638.678 87.7733C638.678 98.52 639.811 105.624 642.08 109.095C644.352 112.562 648.563 114.298 654.722 114.298C656.755 114.298 659.758 113.776 663.722 112.731Z" fill="white"/>
<path d="M695.813 25.7296C695.813 28.3884 694.953 30.6968 693.231 32.6548C691.509 34.6094 689.081 35.5866 685.953 35.5866C683.288 35.5866 681.215 34.7407 679.73 33.0456C678.24 31.3506 677.497 29.3017 677.497 26.9023C677.497 24.294 678.384 22.0261 680.158 20.095C681.931 18.1674 684.385 17.2036 687.517 17.2036C690.072 17.2036 692.095 18.0495 693.582 19.7446C695.067 21.4396 695.813 23.4347 695.813 25.7296ZM692.526 123.531H678.357C679.088 113.098 679.453 101.179 679.453 87.7732C679.453 72.6995 678.538 60.0488 676.715 49.8279L692.368 47.7148C691.741 58.6167 691.431 71.9683 691.431 87.7732C691.431 100.292 691.795 112.212 692.526 123.531Z" fill="white"/>
<path d="M776.51 49.2012C776.51 51.7556 771.222 64.0794 760.662 86.1692C750.092 108.262 744.806 120.714 744.806 123.531H734.326C734.326 119.879 729.663 107.113 720.352 85.2323C711.037 63.3515 706.378 51.3411 706.378 49.2012H721.566C721.566 51.705 724.954 61.6429 731.736 79.0115C738.52 96.3801 741.917 106.315 741.917 108.822H742.622C742.622 106.422 745.841 96.8484 752.287 80.1068C758.726 63.3616 761.953 53.0632 761.953 49.2012H776.51Z" fill="white"/>
<path d="M841.394 77.7579C841.394 63.102 835.261 55.7725 823.001 55.7725C810.481 55.7725 803.093 63.3885 800.853 78.6206L841.394 77.7579ZM854.464 77.6028C854.464 79.7933 854.36 82.8195 854.153 86.678L800.38 87.6182C800.903 95.2343 803.852 101.61 809.226 106.746C814.6 111.885 821.722 114.453 830.592 114.453C838.525 114.453 845.961 113.489 852.903 111.558L851.571 122.595C846.454 124.627 839.071 125.641 829.419 125.641C815.85 125.641 805.508 121.941 798.387 114.53C791.261 107.127 787.705 98.102 787.705 87.4599C787.705 76.0898 790.951 66.2968 797.447 58.0809C803.943 49.8651 812.671 45.7571 823.628 45.7571C833.697 45.7571 841.356 48.7327 846.599 54.6773C851.844 60.6252 854.464 68.2648 854.464 77.6028Z" fill="white"/>
<path d="M101.829 115.71V154.575H693.228" stroke="white" stroke-width="4.16667" stroke-miterlimit="2"/>
<path d="M315.188 35.3104V3.6062H926" stroke="white" stroke-width="4.16667" stroke-miterlimit="2"/>
</svg>
