<svg width="586" height="100" viewBox="0 0 586 100" fill="none" xmlns="http://www.w3.org/2000/svg">
<path d="M51.76 46.0933C51.76 37.5768 49.5221 30.9842 45.0484 26.3132C40.5725 21.6401 35.414 19.3046 29.5686 19.3046C24.1541 19.3046 19.3327 21.7638 15.1064 26.6822C10.8802 31.6027 8.76604 38.1719 8.76604 46.392C8.76604 54.9426 11.021 61.5523 15.5267 66.2233C20.0345 70.8964 25.193 73.234 31.0065 73.234C36.421 73.234 41.2339 70.7385 45.443 65.754C49.6543 60.7696 51.76 54.2153 51.76 46.0933ZM60.5772 44.9565C60.5772 55.6187 57.4561 64.1437 51.2138 70.5317C44.9737 76.9217 37.7586 80.1146 29.5686 80.1146C21.7092 80.1146 14.8163 77.1862 8.88978 71.3251C2.96326 65.464 0 57.5511 0 47.58C0 36.7855 3.119 28.2264 9.36125 21.9046C15.6014 15.5828 22.8165 12.4219 31.0065 12.4219C38.8637 12.4219 45.7566 15.3524 51.6853 21.2114C57.6118 27.0704 60.5772 34.9854 60.5772 44.9565Z" fill="#3E5FAC"/>
<path d="M107.234 16.7303C104.228 15.0133 100.597 14.1538 96.3368 14.1538C93.7277 14.1538 91.6562 14.4865 90.1223 15.1456C88.5863 15.8068 87.4129 16.8796 86.6044 18.3641C85.7937 19.8485 85.2753 21.798 85.0449 24.2081C84.8123 26.6182 84.6971 29.2587 84.6971 32.1317H105.451C105.451 27.674 105.715 23.8604 106.244 20.691C106.475 19.2385 106.805 17.9183 107.234 16.7303ZM143.787 10.6389L140.717 18.0676C134.277 14.8 128.911 13.1642 124.619 13.1642C122.01 13.1642 119.938 13.4947 118.404 14.1538C116.868 14.815 115.695 15.8878 114.887 17.3744C114.078 18.8589 113.557 20.8062 113.327 23.2163C113.094 25.6265 112.979 28.5975 112.979 32.1317C126.221 32.1317 136.111 31.4854 142.648 30.1993C142.219 37.0991 142.006 45.5495 142.006 55.5526C142.006 63.4762 142.253 71.0201 142.748 78.1844H133.684C134.179 71.5469 134.426 64.003 134.426 55.5526C134.426 48.4545 134.095 42.6126 133.436 38.0226C128.186 38.4194 121.368 38.6497 112.979 38.7158C112.979 53.7376 113.178 66.893 113.575 78.1844H104.757C105.252 67.1575 105.5 54.002 105.5 38.7158H84.6481C84.6481 53.7376 84.8465 66.893 85.2433 78.1844H76.426C76.921 67.1575 77.1684 54.002 77.1684 38.7158C75.1204 38.7158 71.6046 38.8161 66.6189 39.0144L66.9154 31.735C71.4723 31.9994 74.8729 32.1317 77.1194 32.1317C77.1194 28.3352 77.3839 24.8501 77.913 21.6828C78.4399 18.5134 79.4469 15.9219 80.9339 13.9085C82.4187 11.8951 84.4753 10.417 87.0993 9.47643C89.7255 8.53584 92.804 8.06449 96.3368 8.06449C101.918 8.06449 106.722 9.12239 110.752 11.2339C112.038 10.08 113.592 9.17144 115.407 8.51025C118.048 7.55473 121.118 7.07483 124.619 7.07483C131.719 7.07483 138.108 8.26284 143.787 10.6389Z" fill="#3E5FAC"/>
<path d="M191.287 70.6063L190.792 77.2417C188.117 78.7602 184.535 79.5196 180.044 79.5196C171.491 79.5196 164.953 77.1606 160.43 72.4385C155.905 67.7184 153.644 62.0237 153.644 55.3542C153.644 48.2902 156.022 42.2158 160.775 37.1311C165.531 32.0485 171.822 29.5061 179.647 29.5061C183.577 29.5061 186.779 29.9028 189.256 30.6941L187.918 38.4684C184.452 37.1823 180.936 36.536 177.369 36.536C172.68 36.536 168.948 38.1719 166.175 41.4395C163.402 44.7091 162.015 48.8021 162.015 53.7205C162.015 59.0676 163.666 63.5252 166.969 67.0914C170.269 70.6575 174.941 72.4385 180.985 72.4385C183.462 72.4385 186.897 71.8285 191.287 70.6063Z" fill="#3E5FAC"/>
<path d="M233.44 49.2139C233.44 39.938 229.56 35.2991 221.801 35.2991C213.875 35.2991 209.201 40.1193 207.782 49.7599L233.44 49.2139ZM241.712 49.1157C241.712 50.5021 241.645 52.4174 241.513 54.8595L207.484 55.4546C207.814 60.2749 209.681 64.3102 213.082 67.5607C216.484 70.8133 220.99 72.4386 226.605 72.4386C231.623 72.4386 236.329 71.8286 240.72 70.6064L239.879 77.5916C236.643 78.8777 231.971 79.5197 225.863 79.5197C217.276 79.5197 210.729 77.1778 206.223 72.4876C201.715 67.8017 199.46 62.0899 199.46 55.3544C199.46 48.1581 201.517 41.96 205.628 36.7601C209.739 31.5602 215.262 28.9602 222.195 28.9602C228.57 28.9602 233.415 30.8435 236.734 34.6059C240.052 38.3704 241.712 43.2056 241.712 49.1157Z" fill="#3E5FAC"/>
<path d="M315.364 49.5102C315.364 44.2293 314.449 40.7399 312.616 39.0379C310.782 37.338 307.769 36.4891 303.575 36.4891C300.042 36.4891 296.394 38.221 292.629 41.6869C292.496 45.7159 292.432 49.6595 292.432 53.5221C292.432 59.0356 292.531 67.2556 292.729 78.1844H283.713C284.441 68.7742 284.804 59.2169 284.804 49.5102C284.804 44.2293 283.886 40.7399 282.054 39.0379C280.223 37.338 277.292 36.4891 273.262 36.4891C269.134 36.4891 265.272 38.221 261.673 41.6869C261.673 52.1528 261.74 64.3165 261.872 78.1844H252.856C253.483 66.9591 253.797 58.8393 253.797 53.8186C253.797 46.1936 253.055 38.7009 251.568 31.3382L260.285 30.099L261.176 36.0924H261.673C265.964 31.7008 270.736 29.5061 275.986 29.5061C283.814 29.5061 288.848 31.7008 291.095 36.0924H291.639C296.625 31.7008 301.546 29.5061 306.4 29.5061C311.946 29.5061 316.141 30.7282 318.98 33.1704C321.82 35.6125 323.241 39.9209 323.241 46.0934C323.241 46.7226 323.206 47.9596 323.14 49.8088C323.074 51.658 323.042 52.8951 323.042 53.5221C323.042 59.0356 323.108 67.2556 323.241 78.1844H314.225C314.984 69.5335 315.364 59.9762 315.364 49.5102Z" fill="#3E5FAC"/>
<path d="M372.869 54.9598C372.869 49.8089 371.572 45.2275 368.982 41.2178C366.388 37.2058 362.7 35.201 357.912 35.201C353.157 35.201 349.498 37.0992 346.94 40.8957C344.38 44.6922 343.102 49.0987 343.102 54.1173C343.102 59.3001 344.397 63.8901 346.989 67.8828C349.581 71.8776 353.287 73.874 358.109 73.874C362.864 73.874 366.512 71.9693 369.055 68.1558C371.598 64.3422 372.869 59.9443 372.869 54.9598ZM381.439 53.2258C381.439 61.6783 379.011 68.2709 374.158 73.008C369.302 77.7451 363.591 80.1147 357.02 80.1147C350.879 80.1147 345.603 78.0181 341.195 73.8271C336.785 69.6338 334.582 63.7237 334.582 56.0966C334.582 47.5801 337.018 40.9298 341.888 36.1415C346.759 31.3554 352.479 28.9602 359.049 28.9602C365.191 28.9602 370.459 31.0824 374.851 35.3247C379.242 39.5669 381.439 45.5347 381.439 53.2258Z" fill="#3E5FAC"/>
<path d="M420.023 71.3487L419.43 77.7899C416.819 78.7454 414.359 79.2232 412.049 79.2232C406.105 79.2232 402.043 77.7131 399.865 74.693C397.685 71.6708 396.595 66.2661 396.595 58.4747C396.595 53.4241 396.629 46.8378 396.695 38.7159C394.845 38.7159 392.121 38.8162 388.522 39.0145L388.818 31.8332C391.957 32.0315 394.762 32.1318 397.239 32.1318C397.239 30.1504 397.403 25.4453 397.734 18.0165L405.51 17.2252C404.949 24.157 404.669 29.1266 404.669 32.1318C407.904 32.1318 412.659 31.9654 418.933 31.6348L418.588 39.0145C412.642 38.8162 407.872 38.7159 404.273 38.7159C404.206 43.7004 404.174 49.3141 404.174 55.5527C404.174 62.3544 404.891 66.8505 406.327 69.0473C407.765 71.242 410.43 72.3405 414.327 72.3405C415.614 72.3405 417.514 72.0099 420.023 71.3487Z" fill="#3E5FAC"/>
<path d="M440.331 16.2846C440.331 17.9674 439.787 19.4284 438.697 20.6676C437.607 21.9047 436.071 22.5232 434.091 22.5232C432.405 22.5232 431.093 21.9878 430.153 20.915C429.21 19.8422 428.74 18.5454 428.74 17.0268C428.74 15.376 429.301 13.9406 430.424 12.7184C431.546 11.4984 433.099 10.8884 435.081 10.8884C436.698 10.8884 437.978 11.4238 438.919 12.4966C439.859 13.5694 440.331 14.8321 440.331 16.2846ZM438.251 78.1844H429.284C429.747 71.5811 429.978 64.0372 429.978 55.5527C429.978 46.0124 429.399 38.0056 428.245 31.5367L438.151 30.1993C437.754 37.0992 437.558 45.5496 437.558 55.5527C437.558 63.4762 437.788 71.0202 438.251 78.1844Z" fill="#3E5FAC"/>
<path d="M491.398 31.14C491.398 32.7567 488.052 40.5566 481.369 54.5375C474.68 68.5205 471.335 76.4014 471.335 78.1845H464.703C464.703 75.8725 461.752 67.7932 455.86 53.9445C449.965 40.0959 447.017 32.4944 447.017 31.14H456.628C456.628 32.7247 458.772 39.0145 463.064 50.0073C467.357 61.0001 469.507 67.2877 469.507 68.8746H469.953C469.953 67.356 471.99 61.2965 476.069 50.7005C480.144 40.1023 482.186 33.5843 482.186 31.14H491.398Z" fill="#3E5FAC"/>
<path d="M532.459 49.2139C532.459 39.938 528.578 35.2991 520.819 35.2991C512.896 35.2991 508.221 40.1193 506.803 49.7599L532.459 49.2139ZM540.73 49.1157C540.73 50.5021 540.664 52.4174 540.533 54.8595L506.504 55.4546C506.835 60.2749 508.701 64.3102 512.102 67.5607C515.503 70.8133 520.01 72.4386 525.623 72.4386C530.643 72.4386 535.349 71.8286 539.742 70.6064L538.899 77.5916C535.661 78.8777 530.989 79.5197 524.881 79.5197C516.294 79.5197 509.749 77.1778 505.243 72.4876C500.733 67.8017 498.483 62.0899 498.483 55.3544C498.483 48.1581 500.537 41.96 504.648 36.7601C508.759 31.5602 514.282 28.9602 521.216 28.9602C527.588 28.9602 532.435 30.8435 535.753 34.6059C539.072 38.3704 540.73 43.2056 540.73 49.1157Z" fill="#3E5FAC"/>
<path d="M64.4407 73.234V97.8323H438.695" stroke="#3E5FAC" stroke-width="4.16667" stroke-miterlimit="2"/>
<path d="M199.46 22.3483V2.28235H586" stroke="#3E5FAC" stroke-width="4.16667" stroke-miterlimit="2"/>
</svg>
